# xmcd
#
# Track frame offsets:
#	182
#	16725
#	33075
#	42600
#	52000
#	63850
#	73425
#	81150
#	93375
#	103800
#	111900
#	119025
#	124650
#	133050
#	148000
#	156325
#	163450
#	171875
#	180375
#	190312
#
# Disc length: 2724 seconds
#
# Revision: 4
# Processed by: cddbd v1.5.2PL0 Copyright (c) Steve Scherf et al.
# Submitted via: audiograbber 1.83.01
#
DISCID=2c0aa214
DTITLE=Nat King Cole - The Gold Collection - CD 1
DYEAR=1997
DGENRE=Jazz
TTITLE0=Unforgettable
TTITLE1=Too Young
TTITLE2=Till The End Of The Years
TTITLE3=The Christmas Song
TTITLE4=Mona Lisa
TTITLE5=I've Grown Accustomed To Her Face
TTITLE6=Sweet Sue, Just You
TTITLE7=Autumn Leaves
TTITLE8=The Sand And The Sea
TTITLE9=A House With Love In It
TTITLE10=Pick Yourself Up
TTITLE11=Thou Swell
TTITLE12=Take Me Back To Toyland
TTITLE13=A Beautiful Friendship
TTITLE14=Just In Time
TTITLE15=When You're Smiling
TTITLE16=It's Only A Paper Moon
TTITLE17=This Can't Be Love
TTITLE18=Crazy, But I'm In Love
TTITLE19=Tea For Two
EXTD=YEAR: 1997
EXTT0=
EXTT1=
EXTT2=
EXTT3=
EXTT4=
EXTT5=
EXTT6=
EXTT7=
EXTT8=
EXTT9=
EXTT10=
EXTT11=
EXTT12=
EXTT13=
EXTT14=
EXTT15=
EXTT16=
EXTT17=
EXTT18=
EXTT19=
PLAYORDER=
